<mxfile host="app.diagrams.net" agent="Mozilla/5.0 (X11; Linux x86_64; rv:135.0) Gecko/20100101 Firefox/135.0" version="26.0.11">
  <diagram id="R2lEEEUBdFMjLlhIrx00" name="Page-1">
    <mxGraphModel dx="2875" dy="612" grid="1" gridSize="10" guides="1" tooltips="1" connect="1" arrows="1" fold="1" page="1" pageScale="1" pageWidth="850" pageHeight="1100" math="0" shadow="0" extFonts="Permanent Marker^https://fonts.googleapis.com/css?family=Permanent+Marker">
      <root>
        <mxCell id="0" />
        <mxCell id="1" parent="0" />
        <mxCell id="UH6hlntqDG2jndBftuYy-109" style="edgeStyle=none;shape=connector;rounded=0;orthogonalLoop=1;jettySize=auto;html=1;exitX=0.25;exitY=1;exitDx=0;exitDy=0;strokeColor=default;align=center;verticalAlign=middle;fontFamily=Helvetica;fontSize=11;fontColor=default;labelBackgroundColor=default;endArrow=none;" parent="1" edge="1">
          <mxGeometry relative="1" as="geometry">
            <mxPoint x="-569.953488372093" y="460" as="targetPoint" />
            <mxPoint x="-570" y="432" as="sourcePoint" />
          </mxGeometry>
        </mxCell>
        <mxCell id="UH6hlntqDG2jndBftuYy-112" style="edgeStyle=none;shape=connector;rounded=0;orthogonalLoop=1;jettySize=auto;html=1;exitX=0.25;exitY=0;exitDx=0;exitDy=0;strokeColor=default;align=center;verticalAlign=middle;fontFamily=Helvetica;fontSize=11;fontColor=default;labelBackgroundColor=default;endArrow=none;entryX=0.5;entryY=1;entryDx=0;entryDy=0;" parent="1" source="UH6hlntqDG2jndBftuYy-2" target="UH6hlntqDG2jndBftuYy-113" edge="1">
          <mxGeometry relative="1" as="geometry">
            <mxPoint x="-579.953488372093" y="360" as="targetPoint" />
          </mxGeometry>
        </mxCell>
        <mxCell id="UH6hlntqDG2jndBftuYy-115" style="edgeStyle=none;shape=connector;rounded=0;orthogonalLoop=1;jettySize=auto;html=1;strokeColor=default;align=center;verticalAlign=middle;fontFamily=Helvetica;fontSize=11;fontColor=default;labelBackgroundColor=default;endArrow=none;entryX=0.5;entryY=1;entryDx=0;entryDy=0;exitX=0.948;exitY=-0.003;exitDx=0;exitDy=0;exitPerimeter=0;" parent="1" edge="1">
          <mxGeometry relative="1" as="geometry">
            <mxPoint x="-539.8" y="432" as="targetPoint" />
            <mxPoint x="-540" y="461.88" as="sourcePoint" />
          </mxGeometry>
        </mxCell>
        <mxCell id="-PovxgAf_op0muI2l1kL-40" style="edgeStyle=orthogonalEdgeStyle;shape=connector;rounded=0;orthogonalLoop=1;jettySize=auto;html=1;strokeColor=default;align=center;verticalAlign=middle;fontFamily=Helvetica;fontSize=11;fontColor=default;labelBackgroundColor=default;endArrow=none;endFill=0;" parent="1" source="-PovxgAf_op0muI2l1kL-41" edge="1">
          <mxGeometry relative="1" as="geometry">
            <mxPoint x="-555" y="240" as="targetPoint" />
          </mxGeometry>
        </mxCell>
        <mxCell id="-PovxgAf_op0muI2l1kL-51" style="edgeStyle=orthogonalEdgeStyle;shape=connector;rounded=0;orthogonalLoop=1;jettySize=auto;html=1;entryX=0;entryY=0.5;entryDx=0;entryDy=0;strokeColor=default;align=center;verticalAlign=middle;fontFamily=Helvetica;fontSize=11;fontColor=default;labelBackgroundColor=default;endArrow=none;endFill=0;" parent="1" source="UH6hlntqDG2jndBftuYy-2" target="UH6hlntqDG2jndBftuYy-273" edge="1">
          <mxGeometry relative="1" as="geometry" />
        </mxCell>
        <mxCell id="xUjpmd4qJ1UWO_Pv_X9L-8" style="edgeStyle=orthogonalEdgeStyle;shape=connector;rounded=0;orthogonalLoop=1;jettySize=auto;html=1;exitX=0;exitY=0.25;exitDx=0;exitDy=0;entryX=0.5;entryY=1;entryDx=0;entryDy=0;strokeColor=default;align=center;verticalAlign=middle;fontFamily=Helvetica;fontSize=11;fontColor=default;labelBackgroundColor=default;endArrow=none;endFill=0;" parent="1" source="UH6hlntqDG2jndBftuYy-2" target="UH6hlntqDG2jndBftuYy-116" edge="1">
          <mxGeometry relative="1" as="geometry" />
        </mxCell>
        <mxCell id="UH6hlntqDG2jndBftuYy-2" value="Negozio" style="whiteSpace=wrap;html=1;align=center;" parent="1" vertex="1">
          <mxGeometry x="-605" y="392" width="100" height="40" as="geometry" />
        </mxCell>
        <mxCell id="UH6hlntqDG2jndBftuYy-153" style="edgeStyle=none;shape=connector;rounded=0;orthogonalLoop=1;jettySize=auto;html=1;exitX=0;exitY=0.25;exitDx=0;exitDy=0;strokeColor=default;align=center;verticalAlign=middle;fontFamily=Helvetica;fontSize=11;fontColor=default;labelBackgroundColor=default;endArrow=none;" parent="1" edge="1">
          <mxGeometry relative="1" as="geometry">
            <mxPoint x="-880" y="225" as="targetPoint" />
            <mxPoint x="-850" y="225" as="sourcePoint" />
            <Array as="points">
              <mxPoint x="-860" y="225" />
            </Array>
          </mxGeometry>
        </mxCell>
        <mxCell id="UH6hlntqDG2jndBftuYy-163" style="edgeStyle=none;shape=connector;rounded=0;orthogonalLoop=1;jettySize=auto;html=1;exitX=0.75;exitY=1;exitDx=0;exitDy=0;strokeColor=default;align=center;verticalAlign=middle;fontFamily=Helvetica;fontSize=11;fontColor=default;labelBackgroundColor=default;endArrow=none;curved=1;entryX=0.5;entryY=0;entryDx=0;entryDy=0;" parent="1" edge="1" target="UH6hlntqDG2jndBftuYy-175">
          <mxGeometry relative="1" as="geometry">
            <mxPoint x="-855" y="118" as="targetPoint" />
            <mxPoint x="-855" y="90" as="sourcePoint" />
          </mxGeometry>
        </mxCell>
        <mxCell id="UH6hlntqDG2jndBftuYy-12" value="Offerta" style="whiteSpace=wrap;html=1;align=center;" parent="1" vertex="1">
          <mxGeometry x="-850" y="220" width="100" height="40" as="geometry" />
        </mxCell>
        <mxCell id="-PovxgAf_op0muI2l1kL-6" style="edgeStyle=orthogonalEdgeStyle;shape=connector;rounded=0;orthogonalLoop=1;jettySize=auto;html=1;strokeColor=default;align=center;verticalAlign=middle;fontFamily=Helvetica;fontSize=11;fontColor=default;labelBackgroundColor=default;endArrow=none;endFill=0;" parent="1" edge="1">
          <mxGeometry relative="1" as="geometry">
            <mxPoint x="-640" y="75.74" as="targetPoint" />
            <mxPoint x="-605" y="75.74" as="sourcePoint" />
          </mxGeometry>
        </mxCell>
        <mxCell id="-PovxgAf_op0muI2l1kL-10" style="edgeStyle=orthogonalEdgeStyle;shape=connector;rounded=0;orthogonalLoop=1;jettySize=auto;html=1;exitX=0;exitY=0.5;exitDx=0;exitDy=0;strokeColor=default;align=center;verticalAlign=middle;fontFamily=Helvetica;fontSize=11;fontColor=default;labelBackgroundColor=default;endArrow=none;endFill=0;" parent="1" edge="1">
          <mxGeometry relative="1" as="geometry">
            <mxPoint x="-640" y="90.04651162790697" as="targetPoint" />
            <mxPoint x="-605" y="90" as="sourcePoint" />
          </mxGeometry>
        </mxCell>
        <mxCell id="-PovxgAf_op0muI2l1kL-13" style="edgeStyle=orthogonalEdgeStyle;shape=connector;rounded=0;orthogonalLoop=1;jettySize=auto;html=1;exitX=0;exitY=0.75;exitDx=0;exitDy=0;strokeColor=default;align=center;verticalAlign=middle;fontFamily=Helvetica;fontSize=11;fontColor=default;labelBackgroundColor=default;endArrow=none;endFill=0;" parent="1" edge="1">
          <mxGeometry relative="1" as="geometry">
            <mxPoint x="-640" y="105.04651162790697" as="targetPoint" />
            <mxPoint x="-605" y="105" as="sourcePoint" />
          </mxGeometry>
        </mxCell>
        <mxCell id="UH6hlntqDG2jndBftuYy-26" value="(1:N)" style="text;html=1;align=center;verticalAlign=middle;resizable=0;points=[];autosize=1;strokeColor=none;fillColor=none;fontStyle=1" parent="1" vertex="1">
          <mxGeometry x="-552.5" y="170" width="50" height="30" as="geometry" />
        </mxCell>
        <mxCell id="lA4jIBcEBFDifkeoae3z-3" style="edgeStyle=orthogonalEdgeStyle;rounded=0;orthogonalLoop=1;jettySize=auto;html=1;exitX=0;exitY=0.5;exitDx=0;exitDy=0;endArrow=none;startFill=0;entryX=1;entryY=0.5;entryDx=0;entryDy=0;" edge="1" parent="1" source="UH6hlntqDG2jndBftuYy-65" target="lA4jIBcEBFDifkeoae3z-2">
          <mxGeometry relative="1" as="geometry">
            <mxPoint x="-880" y="89.88888888888886" as="targetPoint" />
          </mxGeometry>
        </mxCell>
        <mxCell id="lA4jIBcEBFDifkeoae3z-9" style="edgeStyle=orthogonalEdgeStyle;rounded=0;orthogonalLoop=1;jettySize=auto;html=1;exitX=0;exitY=0;exitDx=0;exitDy=0;endArrow=none;startFill=0;" edge="1" parent="1" source="UH6hlntqDG2jndBftuYy-65">
          <mxGeometry relative="1" as="geometry">
            <mxPoint x="-860" y="40" as="targetPoint" />
          </mxGeometry>
        </mxCell>
        <mxCell id="lA4jIBcEBFDifkeoae3z-13" style="edgeStyle=orthogonalEdgeStyle;rounded=0;orthogonalLoop=1;jettySize=auto;html=1;exitX=0;exitY=0;exitDx=0;exitDy=0;endArrow=none;startFill=0;" edge="1" parent="1" source="UH6hlntqDG2jndBftuYy-65">
          <mxGeometry relative="1" as="geometry">
            <mxPoint x="-920" y="40" as="targetPoint" />
          </mxGeometry>
        </mxCell>
        <mxCell id="UH6hlntqDG2jndBftuYy-65" value="Applica" style="shape=rhombus;perimeter=rhombusPerimeter;whiteSpace=wrap;html=1;align=center;" parent="1" vertex="1">
          <mxGeometry x="-840" y="60" width="80" height="60" as="geometry" />
        </mxCell>
        <mxCell id="UH6hlntqDG2jndBftuYy-66" value="" style="endArrow=none;html=1;rounded=0;exitX=0.5;exitY=0;exitDx=0;exitDy=0;" parent="1" source="UH6hlntqDG2jndBftuYy-12" edge="1">
          <mxGeometry relative="1" as="geometry">
            <mxPoint x="-770" y="190" as="sourcePoint" />
            <mxPoint x="-800" y="120" as="targetPoint" />
          </mxGeometry>
        </mxCell>
        <mxCell id="UH6hlntqDG2jndBftuYy-68" value="(0:N)" style="text;html=1;align=center;verticalAlign=middle;resizable=0;points=[];autosize=1;strokeColor=none;fillColor=none;fontStyle=1" parent="1" vertex="1">
          <mxGeometry x="-800" y="120" width="50" height="30" as="geometry" />
        </mxCell>
        <mxCell id="UH6hlntqDG2jndBftuYy-69" value="(0:N)" style="text;html=1;align=center;verticalAlign=middle;resizable=0;points=[];autosize=1;strokeColor=none;fillColor=none;fontStyle=1" parent="1" vertex="1">
          <mxGeometry x="-800" y="40" width="50" height="30" as="geometry" />
        </mxCell>
        <mxCell id="UH6hlntqDG2jndBftuYy-70" value="(1:N)" style="text;html=1;align=center;verticalAlign=middle;resizable=0;points=[];autosize=1;strokeColor=none;fillColor=none;fontStyle=1" parent="1" vertex="1">
          <mxGeometry x="-555" y="260" width="50" height="30" as="geometry" />
        </mxCell>
        <mxCell id="UH6hlntqDG2jndBftuYy-107" value="" style="ellipse;whiteSpace=wrap;html=1;aspect=fixed;fontFamily=Helvetica;fontSize=11;fontColor=default;labelBackgroundColor=default;fillColor=#0A0A0A;" parent="1" vertex="1">
          <mxGeometry x="-625" y="442" width="10" height="10" as="geometry" />
        </mxCell>
        <mxCell id="UH6hlntqDG2jndBftuYy-110" value="" style="ellipse;whiteSpace=wrap;html=1;aspect=fixed;fontFamily=Helvetica;fontSize=11;fontColor=default;labelBackgroundColor=default;fillColor=none;" parent="1" vertex="1">
          <mxGeometry x="-575" y="460" width="10" height="10" as="geometry" />
        </mxCell>
        <mxCell id="UH6hlntqDG2jndBftuYy-111" value="Nome" style="text;html=1;align=center;verticalAlign=middle;resizable=1;points=[];autosize=1;strokeColor=none;fillColor=none;fontFamily=Helvetica;fontSize=11;fontColor=default;labelBackgroundColor=default;movable=1;rotatable=1;deletable=1;editable=1;locked=0;connectable=1;" parent="1" vertex="1">
          <mxGeometry x="-625" y="466" width="50" height="30" as="geometry" />
        </mxCell>
        <mxCell id="UH6hlntqDG2jndBftuYy-113" value="" style="ellipse;whiteSpace=wrap;html=1;aspect=fixed;fontFamily=Helvetica;fontSize=11;fontColor=default;labelBackgroundColor=default;fillColor=none;" parent="1" vertex="1">
          <mxGeometry x="-585" y="352" width="10" height="10" as="geometry" />
        </mxCell>
        <mxCell id="UH6hlntqDG2jndBftuYy-114" value="Indirizzo" style="text;html=1;align=center;verticalAlign=middle;resizable=0;points=[];autosize=1;strokeColor=none;fillColor=none;fontFamily=Helvetica;fontSize=11;fontColor=default;labelBackgroundColor=default;" parent="1" vertex="1">
          <mxGeometry x="-615" y="322" width="70" height="30" as="geometry" />
        </mxCell>
        <mxCell id="UH6hlntqDG2jndBftuYy-116" value="" style="ellipse;whiteSpace=wrap;html=1;aspect=fixed;fontFamily=Helvetica;fontSize=11;fontColor=default;labelBackgroundColor=default;fillColor=none;" parent="1" vertex="1">
          <mxGeometry x="-645" y="352" width="10" height="10" as="geometry" />
        </mxCell>
        <mxCell id="UH6hlntqDG2jndBftuYy-118" value="Telefono" style="text;html=1;align=center;verticalAlign=middle;resizable=0;points=[];autosize=1;strokeColor=none;fillColor=none;fontFamily=Helvetica;fontSize=11;fontColor=default;labelBackgroundColor=default;" parent="1" vertex="1">
          <mxGeometry x="-675" y="322" width="70" height="30" as="geometry" />
        </mxCell>
        <mxCell id="UH6hlntqDG2jndBftuYy-155" value="" style="ellipse;whiteSpace=wrap;html=1;aspect=fixed;fontFamily=Helvetica;fontSize=11;fontColor=default;labelBackgroundColor=default;fillColor=#0A0A0A;" parent="1" vertex="1">
          <mxGeometry x="-890" y="220" width="10" height="10" as="geometry" />
        </mxCell>
        <mxCell id="UH6hlntqDG2jndBftuYy-158" value="CodiceOfferta" style="text;html=1;align=center;verticalAlign=middle;resizable=0;points=[];autosize=1;strokeColor=none;fillColor=none;fontFamily=Helvetica;fontSize=11;fontColor=default;labelBackgroundColor=default;" parent="1" vertex="1">
          <mxGeometry x="-980" y="210" width="100" height="30" as="geometry" />
        </mxCell>
        <mxCell id="UH6hlntqDG2jndBftuYy-165" value="ScontoFisso" style="text;html=1;align=center;verticalAlign=middle;resizable=0;points=[];autosize=1;strokeColor=none;fillColor=none;fontFamily=Helvetica;fontSize=11;fontColor=default;labelBackgroundColor=default;" parent="1" vertex="1">
          <mxGeometry x="-895" y="120" width="80" height="30" as="geometry" />
        </mxCell>
        <mxCell id="UH6hlntqDG2jndBftuYy-166" style="edgeStyle=none;shape=connector;rounded=0;orthogonalLoop=1;jettySize=auto;html=1;exitX=0;exitY=0.75;exitDx=0;exitDy=0;strokeColor=default;align=center;verticalAlign=middle;fontFamily=Helvetica;fontSize=11;fontColor=default;labelBackgroundColor=default;endArrow=none;" parent="1" edge="1">
          <mxGeometry relative="1" as="geometry">
            <mxPoint x="-880" y="249.99999999999997" as="targetPoint" />
            <mxPoint x="-850" y="249.99999999999997" as="sourcePoint" />
          </mxGeometry>
        </mxCell>
        <mxCell id="UH6hlntqDG2jndBftuYy-167" value="" style="ellipse;whiteSpace=wrap;html=1;aspect=fixed;fontFamily=Helvetica;fontSize=11;fontColor=default;labelBackgroundColor=default;fillColor=none;" parent="1" vertex="1">
          <mxGeometry x="-890" y="245" width="10" height="10" as="geometry" />
        </mxCell>
        <mxCell id="UH6hlntqDG2jndBftuYy-168" value="Descrizione" style="text;html=1;align=center;verticalAlign=middle;resizable=0;points=[];autosize=1;strokeColor=none;fillColor=none;fontFamily=Helvetica;fontSize=11;fontColor=default;labelBackgroundColor=default;" parent="1" vertex="1">
          <mxGeometry x="-970" y="235" width="80" height="30" as="geometry" />
        </mxCell>
        <mxCell id="UH6hlntqDG2jndBftuYy-175" value="" style="ellipse;whiteSpace=wrap;html=1;aspect=fixed;fontFamily=Helvetica;fontSize=11;fontColor=default;labelBackgroundColor=default;fillColor=none;" parent="1" vertex="1">
          <mxGeometry x="-860" y="120" width="10" height="10" as="geometry" />
        </mxCell>
        <mxCell id="UH6hlntqDG2jndBftuYy-274" value="" style="endArrow=none;html=1;rounded=0;entryX=0.5;entryY=1;entryDx=0;entryDy=0;" parent="1" target="UH6hlntqDG2jndBftuYy-273" edge="1">
          <mxGeometry width="50" height="50" relative="1" as="geometry">
            <mxPoint x="-370" y="432" as="sourcePoint" />
            <mxPoint x="-370.19" y="252" as="targetPoint" />
          </mxGeometry>
        </mxCell>
        <mxCell id="UH6hlntqDG2jndBftuYy-276" style="edgeStyle=none;shape=connector;rounded=0;orthogonalLoop=1;jettySize=auto;html=1;exitX=1;exitY=0.5;exitDx=0;exitDy=0;entryX=0;entryY=0.5;entryDx=0;entryDy=0;strokeColor=default;align=center;verticalAlign=middle;fontFamily=Helvetica;fontSize=11;fontColor=default;labelBackgroundColor=default;endArrow=none;" parent="1" source="UH6hlntqDG2jndBftuYy-273" target="UH6hlntqDG2jndBftuYy-275" edge="1">
          <mxGeometry relative="1" as="geometry" />
        </mxCell>
        <mxCell id="UH6hlntqDG2jndBftuYy-273" value="Appartiene" style="shape=rhombus;perimeter=rhombusPerimeter;whiteSpace=wrap;html=1;align=center;" parent="1" vertex="1">
          <mxGeometry x="-410" y="382" width="80" height="60" as="geometry" />
        </mxCell>
        <mxCell id="UH6hlntqDG2jndBftuYy-275" value="Zona" style="whiteSpace=wrap;html=1;align=center;" parent="1" vertex="1">
          <mxGeometry x="-260" y="392" width="100" height="40" as="geometry" />
        </mxCell>
        <mxCell id="UH6hlntqDG2jndBftuYy-279" value="" style="edgeStyle=none;shape=connector;rounded=0;orthogonalLoop=1;jettySize=auto;html=1;exitX=0.75;exitY=1;exitDx=0;exitDy=0;strokeColor=default;align=center;verticalAlign=middle;fontFamily=Helvetica;fontSize=11;fontColor=default;labelBackgroundColor=default;endArrow=none;" parent="1" edge="1">
          <mxGeometry relative="1" as="geometry">
            <mxPoint x="-230.11" y="462" as="targetPoint" />
            <mxPoint x="-230.22000000000003" y="432" as="sourcePoint" />
          </mxGeometry>
        </mxCell>
        <mxCell id="UH6hlntqDG2jndBftuYy-278" value="" style="ellipse;whiteSpace=wrap;html=1;aspect=fixed;fontFamily=Helvetica;fontSize=11;fontColor=default;labelBackgroundColor=default;fillColor=#0A0A0A;" parent="1" vertex="1">
          <mxGeometry x="-235" y="462" width="10" height="10" as="geometry" />
        </mxCell>
        <mxCell id="UH6hlntqDG2jndBftuYy-285" value="NomeZona" style="text;html=1;align=center;verticalAlign=middle;resizable=0;points=[];autosize=1;strokeColor=none;fillColor=none;fontFamily=Helvetica;fontSize=11;fontColor=default;labelBackgroundColor=default;" parent="1" vertex="1">
          <mxGeometry x="-270" y="470" width="80" height="30" as="geometry" />
        </mxCell>
        <mxCell id="UH6hlntqDG2jndBftuYy-286" value="(1:N)" style="text;html=1;align=center;verticalAlign=middle;resizable=0;points=[];autosize=1;strokeColor=none;fillColor=none;fontStyle=1" parent="1" vertex="1">
          <mxGeometry x="-330" y="382" width="50" height="30" as="geometry" />
        </mxCell>
        <mxCell id="UH6hlntqDG2jndBftuYy-287" value="(1:1)" style="text;html=1;align=center;verticalAlign=middle;resizable=0;points=[];autosize=1;strokeColor=none;fillColor=none;fontStyle=1" parent="1" vertex="1">
          <mxGeometry x="-460" y="382" width="50" height="30" as="geometry" />
        </mxCell>
        <mxCell id="-PovxgAf_op0muI2l1kL-7" value="" style="ellipse;whiteSpace=wrap;html=1;aspect=fixed;fontFamily=Helvetica;fontSize=11;fontColor=default;labelBackgroundColor=default;fillColor=#0A0A0A;" parent="1" vertex="1">
          <mxGeometry x="-650" y="70" width="10" height="10" as="geometry" />
        </mxCell>
        <mxCell id="-PovxgAf_op0muI2l1kL-9" value="CodiceBarre" style="text;html=1;align=center;verticalAlign=middle;resizable=0;points=[];autosize=1;strokeColor=none;fillColor=none;fontFamily=Helvetica;fontSize=11;fontColor=default;labelBackgroundColor=default;" parent="1" vertex="1">
          <mxGeometry x="-730" y="55" width="90" height="30" as="geometry" />
        </mxCell>
        <mxCell id="-PovxgAf_op0muI2l1kL-11" value="" style="ellipse;whiteSpace=wrap;html=1;aspect=fixed;fontFamily=Helvetica;fontSize=11;fontColor=default;labelBackgroundColor=default;fillColor=none;" parent="1" vertex="1">
          <mxGeometry x="-650" y="85" width="10" height="10" as="geometry" />
        </mxCell>
        <mxCell id="-PovxgAf_op0muI2l1kL-12" value="Nome" style="text;html=1;align=center;verticalAlign=middle;resizable=0;points=[];autosize=1;strokeColor=none;fillColor=none;fontFamily=Helvetica;fontSize=11;fontColor=default;labelBackgroundColor=default;" parent="1" vertex="1">
          <mxGeometry x="-700" y="71" width="50" height="30" as="geometry" />
        </mxCell>
        <mxCell id="-PovxgAf_op0muI2l1kL-14" value="" style="ellipse;whiteSpace=wrap;html=1;aspect=fixed;fontFamily=Helvetica;fontSize=11;fontColor=default;labelBackgroundColor=default;fillColor=none;" parent="1" vertex="1">
          <mxGeometry x="-650" y="100" width="10" height="10" as="geometry" />
        </mxCell>
        <mxCell id="-PovxgAf_op0muI2l1kL-15" value="Categoria" style="text;html=1;align=center;verticalAlign=middle;resizable=0;points=[];autosize=1;strokeColor=none;fillColor=none;fontFamily=Helvetica;fontSize=11;fontColor=default;labelBackgroundColor=default;" parent="1" vertex="1">
          <mxGeometry x="-715" y="91" width="70" height="30" as="geometry" />
        </mxCell>
        <mxCell id="-PovxgAf_op0muI2l1kL-21" value="" style="ellipse;whiteSpace=wrap;html=1;aspect=fixed;fontFamily=Helvetica;fontSize=11;fontColor=default;labelBackgroundColor=default;fillColor=none;" parent="1" vertex="1">
          <mxGeometry x="-645" y="225" width="10" height="10" as="geometry" />
        </mxCell>
        <mxCell id="-PovxgAf_op0muI2l1kL-22" value="Quantità" style="text;html=1;align=center;verticalAlign=middle;resizable=0;points=[];autosize=1;strokeColor=none;fillColor=none;fontFamily=Helvetica;fontSize=11;fontColor=default;labelBackgroundColor=default;" parent="1" vertex="1">
          <mxGeometry x="-675" y="200" width="70" height="30" as="geometry" />
        </mxCell>
        <mxCell id="-PovxgAf_op0muI2l1kL-44" style="edgeStyle=orthogonalEdgeStyle;shape=connector;rounded=0;orthogonalLoop=1;jettySize=auto;html=1;entryX=0.5;entryY=1;entryDx=0;entryDy=0;strokeColor=default;align=center;verticalAlign=middle;fontFamily=Helvetica;fontSize=11;fontColor=default;labelBackgroundColor=default;endArrow=none;endFill=0;" parent="1" source="-PovxgAf_op0muI2l1kL-41" target="-PovxgAf_op0muI2l1kL-43" edge="1">
          <mxGeometry relative="1" as="geometry" />
        </mxCell>
        <mxCell id="-PovxgAf_op0muI2l1kL-62" style="edgeStyle=orthogonalEdgeStyle;shape=connector;rounded=0;orthogonalLoop=1;jettySize=auto;html=1;strokeColor=default;align=center;verticalAlign=middle;fontFamily=Helvetica;fontSize=11;fontColor=default;labelBackgroundColor=default;endArrow=none;endFill=0;entryX=1;entryY=0.5;entryDx=0;entryDy=0;" parent="1" source="-PovxgAf_op0muI2l1kL-41" target="-PovxgAf_op0muI2l1kL-21" edge="1">
          <mxGeometry relative="1" as="geometry">
            <mxPoint x="-629.9999999999998" y="210" as="targetPoint" />
          </mxGeometry>
        </mxCell>
        <mxCell id="-PovxgAf_op0muI2l1kL-50" style="edgeStyle=orthogonalEdgeStyle;shape=connector;rounded=0;orthogonalLoop=1;jettySize=auto;html=1;strokeColor=default;align=center;verticalAlign=middle;fontFamily=Helvetica;fontSize=11;fontColor=default;labelBackgroundColor=default;endArrow=none;endFill=0;" parent="1" edge="1">
          <mxGeometry relative="1" as="geometry">
            <mxPoint x="-585.0014285714285" y="70" as="sourcePoint" />
            <mxPoint x="-800.03" y="60" as="targetPoint" />
            <Array as="points">
              <mxPoint x="-585" y="40" />
              <mxPoint x="-800" y="40" />
            </Array>
          </mxGeometry>
        </mxCell>
        <mxCell id="-PovxgAf_op0muI2l1kL-43" value="&lt;div&gt;Prodotto&lt;/div&gt;" style="whiteSpace=wrap;html=1;align=center;" parent="1" vertex="1">
          <mxGeometry x="-605" y="70" width="100" height="40" as="geometry" />
        </mxCell>
        <mxCell id="-PovxgAf_op0muI2l1kL-60" style="edgeStyle=orthogonalEdgeStyle;shape=connector;rounded=0;orthogonalLoop=1;jettySize=auto;html=1;entryX=1;entryY=0.5;entryDx=0;entryDy=0;strokeColor=default;align=center;verticalAlign=middle;fontFamily=Helvetica;fontSize=11;fontColor=default;labelBackgroundColor=default;endArrow=none;endFill=0;" parent="1" source="-PovxgAf_op0muI2l1kL-53" target="-PovxgAf_op0muI2l1kL-54" edge="1">
          <mxGeometry relative="1" as="geometry" />
        </mxCell>
        <mxCell id="-PovxgAf_op0muI2l1kL-67" style="edgeStyle=orthogonalEdgeStyle;shape=connector;rounded=0;orthogonalLoop=1;jettySize=auto;html=1;exitX=0.25;exitY=0;exitDx=0;exitDy=0;strokeColor=default;align=center;verticalAlign=middle;fontFamily=Helvetica;fontSize=11;fontColor=default;labelBackgroundColor=default;endArrow=none;endFill=0;" parent="1" edge="1">
          <mxGeometry relative="1" as="geometry">
            <mxPoint x="-235" y="180" as="targetPoint" />
            <mxPoint x="-235.17" y="210" as="sourcePoint" />
            <Array as="points">
              <mxPoint x="-235.17" y="190" />
              <mxPoint x="-235.17" y="190" />
            </Array>
          </mxGeometry>
        </mxCell>
        <mxCell id="-PovxgAf_op0muI2l1kL-71" style="edgeStyle=orthogonalEdgeStyle;shape=connector;rounded=0;orthogonalLoop=1;jettySize=auto;html=1;exitX=0.75;exitY=0;exitDx=0;exitDy=0;strokeColor=default;align=center;verticalAlign=middle;fontFamily=Helvetica;fontSize=11;fontColor=default;labelBackgroundColor=default;endArrow=none;endFill=0;" parent="1" edge="1">
          <mxGeometry relative="1" as="geometry">
            <mxPoint x="-175.1" y="180" as="targetPoint" />
            <mxPoint x="-175.07" y="210" as="sourcePoint" />
            <Array as="points">
              <mxPoint x="-175.1" y="191" />
              <mxPoint x="-175.1" y="191" />
            </Array>
          </mxGeometry>
        </mxCell>
        <mxCell id="xUjpmd4qJ1UWO_Pv_X9L-1" style="edgeStyle=orthogonalEdgeStyle;rounded=0;orthogonalLoop=1;jettySize=auto;html=1;exitX=1;exitY=0.25;exitDx=0;exitDy=0;endArrow=none;endFill=0;" parent="1" source="-PovxgAf_op0muI2l1kL-53" edge="1">
          <mxGeometry relative="1" as="geometry">
            <mxPoint x="-130" y="180" as="targetPoint" />
          </mxGeometry>
        </mxCell>
        <mxCell id="-PovxgAf_op0muI2l1kL-53" value="Entrata" style="whiteSpace=wrap;html=1;align=center;" parent="1" vertex="1">
          <mxGeometry x="-260" y="210" width="100" height="40" as="geometry" />
        </mxCell>
        <mxCell id="-PovxgAf_op0muI2l1kL-61" style="edgeStyle=orthogonalEdgeStyle;shape=connector;rounded=0;orthogonalLoop=1;jettySize=auto;html=1;entryX=1;entryY=0.25;entryDx=0;entryDy=0;strokeColor=default;align=center;verticalAlign=middle;fontFamily=Helvetica;fontSize=11;fontColor=default;labelBackgroundColor=default;endArrow=none;endFill=0;" parent="1" source="-PovxgAf_op0muI2l1kL-54" target="UH6hlntqDG2jndBftuYy-2" edge="1">
          <mxGeometry relative="1" as="geometry">
            <Array as="points">
              <mxPoint x="-460" y="230" />
              <mxPoint x="-460" y="402" />
            </Array>
          </mxGeometry>
        </mxCell>
        <mxCell id="-PovxgAf_op0muI2l1kL-54" value="Genera" style="shape=rhombus;perimeter=rhombusPerimeter;whiteSpace=wrap;html=1;align=center;" parent="1" vertex="1">
          <mxGeometry x="-400" y="200" width="80" height="60" as="geometry" />
        </mxCell>
        <mxCell id="-PovxgAf_op0muI2l1kL-63" value="(1:N)" style="text;html=1;align=center;verticalAlign=middle;resizable=0;points=[];autosize=1;strokeColor=none;fillColor=none;fontFamily=Helvetica;fontSize=11;fontColor=default;labelBackgroundColor=default;fontStyle=1" parent="1" vertex="1">
          <mxGeometry x="-450" y="200" width="50" height="30" as="geometry" />
        </mxCell>
        <mxCell id="-PovxgAf_op0muI2l1kL-64" value="(1:1)" style="text;html=1;align=center;verticalAlign=middle;resizable=0;points=[];autosize=1;strokeColor=none;fillColor=none;fontFamily=Helvetica;fontSize=11;fontColor=default;labelBackgroundColor=default;fontStyle=1" parent="1" vertex="1">
          <mxGeometry x="-320" y="200" width="50" height="30" as="geometry" />
        </mxCell>
        <mxCell id="-PovxgAf_op0muI2l1kL-72" value="" style="ellipse;whiteSpace=wrap;html=1;aspect=fixed;fontFamily=Helvetica;fontSize=11;fontColor=default;labelBackgroundColor=default;fillColor=#0A0A0A;" parent="1" vertex="1">
          <mxGeometry x="-240" y="170" width="10" height="10" as="geometry" />
        </mxCell>
        <mxCell id="-PovxgAf_op0muI2l1kL-73" value="" style="ellipse;whiteSpace=wrap;html=1;aspect=fixed;fontFamily=Helvetica;fontSize=11;fontColor=default;labelBackgroundColor=default;fillColor=none;" parent="1" vertex="1">
          <mxGeometry x="-180" y="170" width="10" height="10" as="geometry" />
        </mxCell>
        <mxCell id="-PovxgAf_op0muI2l1kL-74" value="" style="ellipse;whiteSpace=wrap;html=1;aspect=fixed;fontFamily=Helvetica;fontSize=11;fontColor=default;labelBackgroundColor=default;fillColor=none;" parent="1" vertex="1">
          <mxGeometry x="-135" y="170" width="10" height="10" as="geometry" />
        </mxCell>
        <mxCell id="-PovxgAf_op0muI2l1kL-75" value="CodiceEntrata" style="text;html=1;align=center;verticalAlign=middle;resizable=0;points=[];autosize=1;strokeColor=none;fillColor=none;fontFamily=Helvetica;fontSize=11;fontColor=default;labelBackgroundColor=default;" parent="1" vertex="1">
          <mxGeometry x="-285" y="140" width="100" height="30" as="geometry" />
        </mxCell>
        <mxCell id="-PovxgAf_op0muI2l1kL-76" value="Data" style="text;html=1;align=center;verticalAlign=middle;resizable=0;points=[];autosize=1;strokeColor=none;fillColor=none;fontFamily=Helvetica;fontSize=11;fontColor=default;labelBackgroundColor=default;" parent="1" vertex="1">
          <mxGeometry x="-200" y="140" width="50" height="30" as="geometry" />
        </mxCell>
        <mxCell id="-PovxgAf_op0muI2l1kL-77" value="Importo" style="text;html=1;align=center;verticalAlign=middle;resizable=0;points=[];autosize=1;strokeColor=none;fillColor=none;fontFamily=Helvetica;fontSize=11;fontColor=default;labelBackgroundColor=default;" parent="1" vertex="1">
          <mxGeometry x="-160" y="140" width="60" height="30" as="geometry" />
        </mxCell>
        <mxCell id="-PovxgAf_op0muI2l1kL-78" style="edgeStyle=orthogonalEdgeStyle;shape=connector;rounded=0;orthogonalLoop=1;jettySize=auto;html=1;exitX=0.75;exitY=0;exitDx=0;exitDy=0;strokeColor=default;align=center;verticalAlign=middle;fontFamily=Helvetica;fontSize=11;fontColor=default;labelBackgroundColor=default;endArrow=none;endFill=0;" parent="1" edge="1">
          <mxGeometry relative="1" as="geometry">
            <mxPoint x="-175.1" y="250" as="targetPoint" />
            <mxPoint x="-175.07" y="280" as="sourcePoint" />
            <Array as="points">
              <mxPoint x="-175.1" y="261" />
              <mxPoint x="-175.1" y="261" />
            </Array>
          </mxGeometry>
        </mxCell>
        <mxCell id="-PovxgAf_op0muI2l1kL-79" style="edgeStyle=orthogonalEdgeStyle;shape=connector;rounded=0;orthogonalLoop=1;jettySize=auto;html=1;exitX=0.75;exitY=0;exitDx=0;exitDy=0;strokeColor=default;align=center;verticalAlign=middle;fontFamily=Helvetica;fontSize=11;fontColor=default;labelBackgroundColor=default;endArrow=none;endFill=0;" parent="1" edge="1">
          <mxGeometry relative="1" as="geometry">
            <mxPoint x="-245.1" y="250" as="targetPoint" />
            <mxPoint x="-245.07" y="280" as="sourcePoint" />
            <Array as="points">
              <mxPoint x="-245.1" y="261" />
              <mxPoint x="-245.1" y="261" />
            </Array>
          </mxGeometry>
        </mxCell>
        <mxCell id="-PovxgAf_op0muI2l1kL-81" value="" style="ellipse;whiteSpace=wrap;html=1;aspect=fixed;fontFamily=Helvetica;fontSize=11;fontColor=default;labelBackgroundColor=default;fillColor=none;" parent="1" vertex="1">
          <mxGeometry x="-180" y="280" width="10" height="10" as="geometry" />
        </mxCell>
        <mxCell id="-PovxgAf_op0muI2l1kL-83" value="" style="ellipse;whiteSpace=wrap;html=1;aspect=fixed;fontFamily=Helvetica;fontSize=11;fontColor=default;labelBackgroundColor=default;fillColor=none;" parent="1" vertex="1">
          <mxGeometry x="-250" y="280" width="10" height="10" as="geometry" />
        </mxCell>
        <mxCell id="-PovxgAf_op0muI2l1kL-84" value="Descrizione" style="text;html=1;align=center;verticalAlign=middle;resizable=0;points=[];autosize=1;strokeColor=none;fillColor=none;fontFamily=Helvetica;fontSize=11;fontColor=default;labelBackgroundColor=default;" parent="1" vertex="1">
          <mxGeometry x="-205" y="290" width="80" height="30" as="geometry" />
        </mxCell>
        <mxCell id="-PovxgAf_op0muI2l1kL-85" value="MetodoPagamento" style="text;html=1;align=center;verticalAlign=middle;resizable=0;points=[];autosize=1;strokeColor=none;fillColor=none;fontFamily=Helvetica;fontSize=11;fontColor=default;labelBackgroundColor=default;" parent="1" vertex="1">
          <mxGeometry x="-310" y="290" width="120" height="30" as="geometry" />
        </mxCell>
        <mxCell id="-PovxgAf_op0muI2l1kL-86" style="edgeStyle=orthogonalEdgeStyle;shape=connector;rounded=0;orthogonalLoop=1;jettySize=auto;html=1;exitX=0.25;exitY=0;exitDx=0;exitDy=0;strokeColor=default;align=center;verticalAlign=middle;fontFamily=Helvetica;fontSize=11;fontColor=default;labelBackgroundColor=default;endArrow=none;endFill=0;" parent="1" edge="1">
          <mxGeometry relative="1" as="geometry">
            <mxPoint x="-517.41" y="40" as="targetPoint" />
            <mxPoint x="-517.5799999999999" y="70" as="sourcePoint" />
            <Array as="points">
              <mxPoint x="-517.41" y="60" />
              <mxPoint x="-517.41" y="60" />
            </Array>
          </mxGeometry>
        </mxCell>
        <mxCell id="-PovxgAf_op0muI2l1kL-87" value="Descrizione" style="text;html=1;align=center;verticalAlign=middle;resizable=0;points=[];autosize=1;strokeColor=none;fillColor=none;fontFamily=Helvetica;fontSize=11;fontColor=default;labelBackgroundColor=default;" parent="1" vertex="1">
          <mxGeometry x="-540" width="80" height="30" as="geometry" />
        </mxCell>
        <mxCell id="-PovxgAf_op0muI2l1kL-88" value="" style="ellipse;whiteSpace=wrap;html=1;aspect=fixed;fontFamily=Helvetica;fontSize=11;fontColor=default;labelBackgroundColor=default;fillColor=none;" parent="1" vertex="1">
          <mxGeometry x="-522.5" y="30" width="10" height="10" as="geometry" />
        </mxCell>
        <mxCell id="-PovxgAf_op0muI2l1kL-90" style="edgeStyle=orthogonalEdgeStyle;shape=connector;rounded=0;orthogonalLoop=1;jettySize=auto;html=1;strokeColor=default;align=center;verticalAlign=middle;fontFamily=Helvetica;fontSize=11;fontColor=default;labelBackgroundColor=default;endArrow=none;endFill=0;entryX=0;entryY=0.5;entryDx=0;entryDy=0;" parent="1" target="-PovxgAf_op0muI2l1kL-91" edge="1">
          <mxGeometry relative="1" as="geometry">
            <mxPoint x="-480" y="106" as="targetPoint" />
            <mxPoint x="-505" y="105.99999999999977" as="sourcePoint" />
          </mxGeometry>
        </mxCell>
        <mxCell id="-PovxgAf_op0muI2l1kL-91" value="" style="ellipse;whiteSpace=wrap;html=1;aspect=fixed;fontFamily=Helvetica;fontSize=11;fontColor=default;labelBackgroundColor=default;fillColor=none;" parent="1" vertex="1">
          <mxGeometry x="-475" y="101" width="10" height="10" as="geometry" />
        </mxCell>
        <mxCell id="-PovxgAf_op0muI2l1kL-92" value="PrezzoVendita" style="text;html=1;align=center;verticalAlign=middle;resizable=0;points=[];autosize=1;strokeColor=none;fillColor=none;fontFamily=Helvetica;fontSize=11;fontColor=default;labelBackgroundColor=default;" parent="1" vertex="1">
          <mxGeometry x="-470" y="90" width="90" height="30" as="geometry" />
        </mxCell>
        <mxCell id="-PovxgAf_op0muI2l1kL-94" style="edgeStyle=orthogonalEdgeStyle;shape=connector;rounded=0;orthogonalLoop=1;jettySize=auto;html=1;exitX=0.5;exitY=0;exitDx=0;exitDy=0;strokeColor=default;align=center;verticalAlign=middle;fontFamily=Helvetica;fontSize=11;fontColor=default;labelBackgroundColor=default;endArrow=none;endFill=0;" parent="1" edge="1">
          <mxGeometry relative="1" as="geometry">
            <mxPoint x="-565" y="40" as="targetPoint" />
            <mxPoint x="-565" y="70" as="sourcePoint" />
          </mxGeometry>
        </mxCell>
        <mxCell id="-PovxgAf_op0muI2l1kL-95" value="" style="ellipse;whiteSpace=wrap;html=1;aspect=fixed;fontFamily=Helvetica;fontSize=11;fontColor=default;labelBackgroundColor=default;fillColor=none;" parent="1" vertex="1">
          <mxGeometry x="-570" y="30" width="10" height="10" as="geometry" />
        </mxCell>
        <mxCell id="-PovxgAf_op0muI2l1kL-96" value="InVendita" style="text;html=1;align=center;verticalAlign=middle;resizable=0;points=[];autosize=1;strokeColor=none;fillColor=none;fontFamily=Helvetica;fontSize=11;fontColor=default;labelBackgroundColor=default;" parent="1" vertex="1">
          <mxGeometry x="-595" width="70" height="30" as="geometry" />
        </mxCell>
        <mxCell id="-PovxgAf_op0muI2l1kL-97" value="" style="edgeStyle=orthogonalEdgeStyle;shape=connector;rounded=0;orthogonalLoop=1;jettySize=auto;html=1;strokeColor=default;align=center;verticalAlign=middle;fontFamily=Helvetica;fontSize=11;fontColor=default;labelBackgroundColor=default;endArrow=none;endFill=0;" parent="1" source="UH6hlntqDG2jndBftuYy-2" target="-PovxgAf_op0muI2l1kL-41" edge="1">
          <mxGeometry relative="1" as="geometry">
            <mxPoint x="-555" y="240" as="targetPoint" />
            <mxPoint x="-555" y="392" as="sourcePoint" />
          </mxGeometry>
        </mxCell>
        <mxCell id="-PovxgAf_op0muI2l1kL-41" value="Inventario" style="shape=rhombus;perimeter=rhombusPerimeter;whiteSpace=wrap;html=1;align=center;" parent="1" vertex="1">
          <mxGeometry x="-595" y="200" width="80" height="60" as="geometry" />
        </mxCell>
        <mxCell id="Uklz-AWIGlkNJqZ2sdlb-2" style="edgeStyle=none;shape=connector;rounded=0;orthogonalLoop=1;jettySize=auto;html=1;exitX=0.25;exitY=0;exitDx=0;exitDy=0;strokeColor=default;align=center;verticalAlign=middle;fontFamily=Helvetica;fontSize=11;fontColor=default;labelBackgroundColor=default;endArrow=none;entryX=0.5;entryY=1;entryDx=0;entryDy=0;" parent="1" target="Uklz-AWIGlkNJqZ2sdlb-3" edge="1">
          <mxGeometry relative="1" as="geometry">
            <mxPoint x="-517.453488372093" y="360" as="targetPoint" />
            <mxPoint x="-517.5" y="392" as="sourcePoint" />
          </mxGeometry>
        </mxCell>
        <mxCell id="Uklz-AWIGlkNJqZ2sdlb-3" value="" style="ellipse;whiteSpace=wrap;html=1;aspect=fixed;fontFamily=Helvetica;fontSize=11;fontColor=default;labelBackgroundColor=default;fillColor=none;" parent="1" vertex="1">
          <mxGeometry x="-522.5" y="352" width="10" height="10" as="geometry" />
        </mxCell>
        <mxCell id="Uklz-AWIGlkNJqZ2sdlb-4" value="Orario" style="text;html=1;align=center;verticalAlign=middle;resizable=0;points=[];autosize=1;strokeColor=none;fillColor=none;" parent="1" vertex="1">
          <mxGeometry x="-547.5" y="322" width="60" height="30" as="geometry" />
        </mxCell>
        <mxCell id="xUjpmd4qJ1UWO_Pv_X9L-3" style="edgeStyle=none;shape=connector;rounded=0;orthogonalLoop=1;jettySize=auto;html=1;exitX=0.25;exitY=1;exitDx=0;exitDy=0;strokeColor=default;align=center;verticalAlign=middle;fontFamily=Helvetica;fontSize=11;fontColor=default;labelBackgroundColor=default;endArrow=none;" parent="1" edge="1">
          <mxGeometry relative="1" as="geometry">
            <mxPoint x="-599.953488372093" y="460" as="targetPoint" />
            <mxPoint x="-600" y="432" as="sourcePoint" />
          </mxGeometry>
        </mxCell>
        <mxCell id="xUjpmd4qJ1UWO_Pv_X9L-4" value="" style="ellipse;whiteSpace=wrap;html=1;aspect=fixed;fontFamily=Helvetica;fontSize=11;fontColor=default;labelBackgroundColor=default;fillColor=none;" parent="1" vertex="1">
          <mxGeometry x="-605" y="460" width="10" height="10" as="geometry" />
        </mxCell>
        <mxCell id="xUjpmd4qJ1UWO_Pv_X9L-5" value="Via" style="text;html=1;align=center;verticalAlign=middle;resizable=1;points=[];autosize=1;strokeColor=none;fillColor=none;fontFamily=Helvetica;fontSize=11;fontColor=default;labelBackgroundColor=default;movable=1;rotatable=1;deletable=1;editable=1;locked=0;connectable=1;" parent="1" vertex="1">
          <mxGeometry x="-590" y="466" width="40" height="30" as="geometry" />
        </mxCell>
        <mxCell id="xUjpmd4qJ1UWO_Pv_X9L-9" value="" style="ellipse;whiteSpace=wrap;html=1;aspect=fixed;fontFamily=Helvetica;fontSize=11;fontColor=default;labelBackgroundColor=default;fillColor=none;" parent="1" vertex="1">
          <mxGeometry x="-545" y="462" width="10" height="10" as="geometry" />
        </mxCell>
        <mxCell id="xUjpmd4qJ1UWO_Pv_X9L-10" value="Città" style="text;html=1;align=center;verticalAlign=middle;resizable=0;points=[];autosize=1;strokeColor=none;fillColor=none;fontFamily=Helvetica;fontSize=11;fontColor=default;labelBackgroundColor=default;" parent="1" vertex="1">
          <mxGeometry x="-565" y="466" width="50" height="30" as="geometry" />
        </mxCell>
        <mxCell id="xUjpmd4qJ1UWO_Pv_X9L-11" style="edgeStyle=none;shape=connector;rounded=0;orthogonalLoop=1;jettySize=auto;html=1;strokeColor=default;align=center;verticalAlign=middle;fontFamily=Helvetica;fontSize=11;fontColor=default;labelBackgroundColor=default;endArrow=none;entryX=0.5;entryY=1;entryDx=0;entryDy=0;exitX=0.948;exitY=-0.003;exitDx=0;exitDy=0;exitPerimeter=0;" parent="1" edge="1">
          <mxGeometry relative="1" as="geometry">
            <mxPoint x="-507.43999999999994" y="432" as="targetPoint" />
            <mxPoint x="-507.64" y="461.88" as="sourcePoint" />
          </mxGeometry>
        </mxCell>
        <mxCell id="xUjpmd4qJ1UWO_Pv_X9L-12" value="" style="ellipse;whiteSpace=wrap;html=1;aspect=fixed;fontFamily=Helvetica;fontSize=11;fontColor=default;labelBackgroundColor=default;fillColor=none;" parent="1" vertex="1">
          <mxGeometry x="-512.5" y="461.88" width="10" height="10" as="geometry" />
        </mxCell>
        <mxCell id="xUjpmd4qJ1UWO_Pv_X9L-13" value="Civico" style="text;html=1;align=center;verticalAlign=middle;resizable=0;points=[];autosize=1;strokeColor=none;fillColor=none;fontFamily=Helvetica;fontSize=11;fontColor=default;labelBackgroundColor=default;" parent="1" vertex="1">
          <mxGeometry x="-537.5" y="466" width="60" height="30" as="geometry" />
        </mxCell>
        <mxCell id="xUjpmd4qJ1UWO_Pv_X9L-14" style="edgeStyle=orthogonalEdgeStyle;shape=connector;rounded=0;orthogonalLoop=1;jettySize=auto;html=1;entryX=0;entryY=0.5;entryDx=0;entryDy=0;strokeColor=default;align=center;verticalAlign=middle;fontFamily=Helvetica;fontSize=11;fontColor=default;labelBackgroundColor=default;endArrow=none;endFill=0;" parent="1" edge="1">
          <mxGeometry relative="1" as="geometry">
            <mxPoint x="-615" y="446.86" as="sourcePoint" />
            <mxPoint x="-502.5" y="446.86" as="targetPoint" />
          </mxGeometry>
        </mxCell>
        <mxCell id="lA4jIBcEBFDifkeoae3z-2" value="" style="ellipse;whiteSpace=wrap;html=1;aspect=fixed;fontFamily=Helvetica;fontSize=11;fontColor=default;labelBackgroundColor=default;fillColor=none;" vertex="1" parent="1">
          <mxGeometry x="-945" y="85" width="10" height="10" as="geometry" />
        </mxCell>
        <mxCell id="lA4jIBcEBFDifkeoae3z-4" value="DataInizio" style="text;html=1;align=center;verticalAlign=middle;resizable=0;points=[];autosize=1;strokeColor=none;fillColor=none;" vertex="1" parent="1">
          <mxGeometry x="-945" width="80" height="30" as="geometry" />
        </mxCell>
        <mxCell id="lA4jIBcEBFDifkeoae3z-10" value="DataFine" style="text;html=1;align=center;verticalAlign=middle;resizable=0;points=[];autosize=1;strokeColor=none;fillColor=none;" vertex="1" parent="1">
          <mxGeometry x="-870" width="80" height="30" as="geometry" />
        </mxCell>
        <mxCell id="lA4jIBcEBFDifkeoae3z-11" value="" style="ellipse;whiteSpace=wrap;html=1;aspect=fixed;fontFamily=Helvetica;fontSize=11;fontColor=default;labelBackgroundColor=default;fillColor=none;" vertex="1" parent="1">
          <mxGeometry x="-865" y="30" width="10" height="10" as="geometry" />
        </mxCell>
        <mxCell id="lA4jIBcEBFDifkeoae3z-14" value="" style="ellipse;whiteSpace=wrap;html=1;aspect=fixed;fontFamily=Helvetica;fontSize=11;fontColor=default;labelBackgroundColor=default;fillColor=none;" vertex="1" parent="1">
          <mxGeometry x="-925" y="30" width="10" height="10" as="geometry" />
        </mxCell>
        <mxCell id="lA4jIBcEBFDifkeoae3z-15" value="PercentualeSconto" style="text;html=1;align=center;verticalAlign=middle;resizable=0;points=[];autosize=1;strokeColor=none;fillColor=none;" vertex="1" parent="1">
          <mxGeometry x="-1065" y="75" width="130" height="30" as="geometry" />
        </mxCell>
        <mxCell id="lA4jIBcEBFDifkeoae3z-23" style="edgeStyle=none;shape=connector;rounded=0;orthogonalLoop=1;jettySize=auto;html=1;exitX=0.75;exitY=1;exitDx=0;exitDy=0;strokeColor=default;align=center;verticalAlign=middle;fontFamily=Helvetica;fontSize=11;fontColor=default;labelBackgroundColor=default;endArrow=none;curved=1;entryX=0.5;entryY=0;entryDx=0;entryDy=0;" edge="1" parent="1" target="lA4jIBcEBFDifkeoae3z-25">
          <mxGeometry relative="1" as="geometry">
            <mxPoint x="-930" y="119" as="targetPoint" />
            <mxPoint x="-930" y="91" as="sourcePoint" />
          </mxGeometry>
        </mxCell>
        <mxCell id="lA4jIBcEBFDifkeoae3z-24" value="PrezzoPromo" style="text;html=1;align=center;verticalAlign=middle;resizable=0;points=[];autosize=1;strokeColor=none;fillColor=none;fontFamily=Helvetica;fontSize=11;fontColor=default;labelBackgroundColor=default;" vertex="1" parent="1">
          <mxGeometry x="-975" y="121" width="90" height="30" as="geometry" />
        </mxCell>
        <mxCell id="lA4jIBcEBFDifkeoae3z-25" value="" style="ellipse;whiteSpace=wrap;html=1;aspect=fixed;fontFamily=Helvetica;fontSize=11;fontColor=default;labelBackgroundColor=default;fillColor=none;" vertex="1" parent="1">
          <mxGeometry x="-935" y="121" width="10" height="10" as="geometry" />
        </mxCell>
      </root>
    </mxGraphModel>
  </diagram>
</mxfile>
